<?xml version="1.0" standalone="no"?>
<!DOCTYPE svg PUBLIC "-//W3C//DTD SVG 20010904//EN"
 "http://www.w3.org/TR/2001/REC-SVG-20010904/DTD/svg10.dtd">
<svg version="1.0" xmlns="http://www.w3.org/2000/svg"
 width="498.000000pt" height="501.000000pt" viewBox="0 0 498.000000 501.000000"
 preserveAspectRatio="xMidYMid meet">

<g transform="translate(0.000000,501.000000) scale(0.100000,-0.100000)"
fill="#000000" stroke="none">
<path d="M187 4832 l-37 -38 0 -1022 0 -1022 36 -40 36 -40 214 0 214 0 0
-152 c1 -279 53 -529 160 -767 22 -48 35 -88 29 -91 -6 -4 -8 -165 -7 -416 l3
-409 404 -3 c232 -1 409 2 414 7 5 5 42 -6 90 -29 45 -21 132 -53 192 -73 206
-65 347 -87 571 -87 l154 0 0 -214 0 -214 31 -31 31 -31 1027 0 1027 0 32 33
32 33 0 1025 0 1025 -38 37 -38 37 -212 0 -213 0 7 88 c17 230 -50 590 -153
812 l-34 75 1 433 1 432 -411 0 c-250 0 -410 -4 -410 -9 0 -6 -34 6 -76 25
-118 53 -262 101 -396 130 -102 22 -157 27 -325 31 l-203 6 0 211 0 212 -38
37 -38 37 -1020 0 -1020 0 -37 -38z m2003 -866 l0 -764 -70 -41 c-38 -23 -97
-67 -131 -99 -58 -53 -150 -178 -164 -222 -6 -20 -21 -20 -766 -20 l-759 0 0
955 0 955 945 0 945 0 0 -764z m510 249 c198 -26 376 -79 538 -158 l103 -50
-3 -81 -3 -81 -497 -3 -498 -2 0 189 c0 189 0 190 23 194 51 10 239 6 337 -8z
m1320 -407 l-1 -233 -27 35 c-15 19 -46 58 -69 87 -33 40 -43 61 -43 89 0 65
-64 124 -135 124 -20 0 -125 72 -184 126 -2 2 100 4 227 4 l232 0 0 -232z
m-457 44 c45 -35 56 -49 51 -65 -3 -10 2 -39 11 -63 20 -52 66 -84 119 -84 39
0 53 -12 119 -102 l29 -38 -206 0 -206 0 0 206 c0 161 3 204 13 198 6 -4 38
-28 70 -52z m-223 -322 l0 -170 170 0 170 0 0 -505 0 -505 -225 0 c-124 0
-225 3 -225 8 1 4 5 39 10 77 11 84 -2 212 -31 305 -95 302 -383 518 -694 522
-49 0 -109 -3 -132 -7 l-43 -7 0 226 0 226 500 0 500 0 0 -170z m686 -258 c53
-104 126 -327 150 -457 13 -72 18 -150 19 -280 l0 -180 -187 -3 -188 -2 0 505
0 506 82 -3 82 -3 42 -83z m-2014 -724 l3 -193 113 -3 112 -3 0 -35 0 -35
-157 3 -158 3 -3 193 c-1 116 -6 192 -12 192 -6 0 -10 16 -10 35 l0 35 55 0
55 0 2 -192z m569 -23 c43 -115 78 -218 78 -228 1 -15 -6 -18 -40 -15 -39 3
-42 6 -58 48 l-17 45 -83 0 -83 0 -17 -45 c-16 -43 -19 -45 -59 -48 -23 -2
-42 1 -42 6 0 9 30 94 114 327 20 55 38 106 41 113 3 9 19 12 47 10 l42 -3 77
-210z m456 183 c31 -30 33 -36 33 -98 0 -38 -5 -71 -12 -78 -9 -9 -7 -17 10
-35 18 -19 22 -35 22 -88 0 -61 -2 -67 -33 -97 l-34 -33 -154 3 -154 3 -3 193
c-1 116 -6 192 -12 192 -6 0 -10 16 -10 35 l0 35 157 0 157 0 33 -32z m-1867
-543 l0 -506 -77 3 -77 3 -26 45 c-33 57 -101 224 -128 315 -50 171 -81 427
-68 568 l8 77 184 0 184 0 0 -505z m589 468 c-17 -74 -10 -206 16 -308 55
-219 191 -387 397 -490 122 -61 210 -79 364 -73 l124 5 0 -224 0 -223 -500 0
-500 0 0 170 0 170 -170 0 -170 0 0 505 0 505 224 0 224 0 -9 -37z m2939
-1385 l-3 -953 -945 0 -945 0 -3 761 -2 761 65 38 c121 71 217 167 282 283
l35 62 759 0 759 0 -2 -952z m-3188 66 l0 -206 -62 49 c-57 45 -63 53 -68 95
-10 80 -57 128 -130 131 -35 1 -46 7 -74 42 -18 22 -41 52 -51 68 l-17 27 201
0 201 0 0 -206z m-417 -13 c10 -8 17 -28 17 -50 0 -69 55 -128 127 -138 27 -4
63 -24 122 -69 l83 -64 -231 0 -231 0 0 231 0 232 48 -64 c27 -35 56 -70 65
-78z m1567 -310 l0 -189 -87 -6 c-245 -19 -566 47 -810 164 l-103 50 0 85 0
85 500 0 500 0 0 -189z"/>
<path d="M562 4568 c-16 -16 -16 -210 0 -226 7 -7 25 -12 40 -12 l28 0 0 -665
c0 -652 0 -665 20 -685 19 -19 33 -20 533 -20 l513 0 122 123 122 124 0 212 0
213 -65 70 c-77 83 -82 111 -35 165 l30 34 0 226 0 226 -112 114 -112 113
-536 0 c-404 0 -539 -3 -548 -12z m959 -287 l39 -39 0 -126 0 -126 -36 -40
-36 -40 -255 0 c-156 0 -262 4 -274 10 -18 10 -19 23 -19 187 0 150 2 179 17
195 15 17 37 18 271 18 l254 0 39 -39z m61 -678 l48 -47 0 -117 0 -116 -44
-46 -44 -47 -285 0 c-246 0 -288 2 -301 16 -24 24 -24 359 1 386 15 17 38 18
297 18 l280 0 48 -47z"/>
<path d="M2451 2595 c-53 -136 -52 -145 9 -145 26 0 43 5 46 15 3 8 -5 47 -19
87 l-25 73 -11 -30z"/>
<path d="M2809 2653 c-6 -6 -9 -31 -7 -55 l3 -43 79 -3 c89 -3 96 1 96 61 0
24 -5 40 -15 43 -29 12 -147 9 -156 -3z"/>
<path d="M2804 2456 c-3 -7 -4 -33 -2 -57 l3 -44 81 -3 c65 -2 85 1 98 13 19
19 21 76 4 93 -18 18 -177 16 -184 -2z"/>
<path d="M3608 2043 c-9 -10 -48 -106 -86 -213 -157 -433 -406 -1121 -443
-1223 -33 -90 -37 -111 -28 -130 7 -12 17 -25 23 -29 15 -10 238 -10 253 0 7
5 40 80 72 167 33 87 67 165 77 172 22 16 514 19 544 3 11 -6 39 -68 75 -166
32 -85 64 -162 72 -170 11 -10 44 -14 133 -14 130 0 150 8 150 57 0 14 -32
114 -71 222 -39 108 -136 376 -216 596 -79 220 -170 470 -200 555 -31 85 -64
163 -75 173 -17 14 -40 17 -143 17 -103 0 -124 -3 -137 -17z m194 -520 c20
-60 59 -173 87 -252 52 -149 56 -182 21 -201 -10 -6 -84 -10 -164 -10 -133 0
-148 2 -166 20 -11 11 -20 26 -20 32 0 7 39 127 87 265 63 183 92 253 103 253
10 0 27 -34 52 -107z"/>
</g>
</svg>
